<svg xmlns="http://www.w3.org/2000/svg" version="1.0" viewBox="0 0 562 544"><path fill="#FFF" fill-opacity=".2" d="M137.5 490c1 1.1 2 2 2.3 2s-.3-.9-1.3-2-2-2-2.3-2 .3.9 1.3 2m205 0c1 1.1 2 2 2.3 2s-.3-.9-1.3-2-2-2-2.3-2 .3.9 1.3 2m-171.3 18.3c-.2 15.5-.5 19.7-1.4 19.1-1-.5-1-.4-.1.6.7.8 1.5 1.1 1.8.8s.4-9.5.2-20.4l-.2-19.9zm23.1-14.8c0 2.7.2 3.8.4 2.2.2-1.5.2-3.7 0-5-.2-1.2-.4 0-.4 2.8m69.1 14c0 10.4.2 14.6.3 9.2.2-5.4.2-13.9 0-19-.1-5.1-.3-.7-.3 9.8m112.8.8c-.2 15.5-.5 19.7-1.4 19.1-1-.5-1-.4-.1.6.7.8 1.5 1.1 1.8.8s.4-9.5.2-20.4l-.2-19.9zm23.1-14.8c0 2.7.2 3.8.4 2.2.2-1.5.2-3.7 0-5-.2-1.2-.4 0-.4 2.8M142 495.4c0 .2.8 1 1.8 1.7 1.5 1.3 1.6 1.2.3-.4s-2.1-2.1-2.1-1.3m205 0c0 .2.8 1 1.8 1.7 1.5 1.3 1.6 1.2.3-.4s-2.1-2.1-2.1-1.3m-211.6 28.1c0 11.6.2 16.1.3 10.2.2-5.9.2-15.4 0-21-.1-5.6-.3-.8-.3 10.8m205 0c0 11.6.2 16.1.3 10.2.2-5.9.2-15.4 0-21-.1-5.6-.3-.8-.3 10.8m-58.6-11.8c4.5.2 11.9.2 16.5 0 4.5-.1.8-.3-8.3-.3s-12.8.2-8.2.3M158 514.4c0 .2.8 1 1.8 1.7 1.5 1.3 1.6 1.2.3-.4s-2.1-2.1-2.1-1.3m205 0c0 .2.8 1 1.8 1.7 1.5 1.3 1.6 1.2.3-.4s-2.1-2.1-2.1-1.3m-200 6c0 .2.8 1 1.8 1.7 1.5 1.3 1.6 1.2.3-.4s-2.1-2.1-2.1-1.3m205 0c0 .2.8 1 1.8 1.7 1.5 1.3 1.6 1.2.3-.4s-2.1-2.1-2.1-1.3m-214 5c0 .2.8 1 1.8 1.7 1.5 1.3 1.6 1.2.3-.4s-2.1-2.1-2.1-1.3m205 0c0 .2.8 1 1.8 1.7 1.5 1.3 1.6 1.2.3-.4s-2.1-2.1-2.1-1.3m-95.9 7.2c0 1.1.3 1.4.6.6.3-.7.2-1.6-.1-1.9-.3-.4-.6.2-.5 1.3m20.7 2.1c5.6.2 14.8.2 20.5 0 5.6-.1 1-.3-10.3-.3s-15.9.2-10.2.3m-20.6 6.8c0 1.7.2 2.2.5 1.2.2-.9.2-2.3 0-3-.3-.6-.5.1-.5 1.8"/><path fill="#FFF" fill-opacity=".4" d="M103.8 488.7c1.2.2 3.2.2 4.5 0 1.2-.2.2-.4-2.3-.4s-3.5.2-2.2.4m24.5 0c1.5.2 3.9.2 5.5 0 1.5-.2.2-.4-2.8-.4s-4.3.2-2.7.4m46.5 0c1.2.2 3.2.2 4.5 0 1.2-.2.2-.4-2.3-.4s-3.5.2-2.2.4m38.6 0 17.5.3.4 4.5.4 4.5-.1-4.7-.1-4.8h-17.8l-17.7-.1zm25 .6c-.3.8-.4 3.2-.1 5.3.3 3.7.4 3.7.5-.9l.2-4.7h10.9l.4 4.7.4 4.8-.1-5-.1-5-5.8-.3c-4.3-.2-5.9.1-6.3 1.1m38.9-.6c7.1.2 18.3.2 25 0 6.7-.1 1-.3-12.8-.3-13.7 0-19.2.2-12.2.3m56 0c1.5.2 3.9.2 5.5 0 1.5-.2.2-.4-2.8-.4s-4.3.2-2.7.4m46.5 0c1.2.2 3.2.2 4.5 0 1.2-.2.2-.4-2.3-.4s-3.5.2-2.2.4m39.9 0 18.2.3.4 4.5.4 4.5-.1-4.7-.1-4.8H420l-18.5-.1zm25.7.6c-.3.8-.4 3.2-.1 5.3.3 3.7.4 3.7.5-.9l.2-4.7h8.9l.4 4.2.4 4.3-.1-4.5-.1-4.5-4.8-.3c-3.4-.2-4.9.1-5.3 1.1m-218 31.7c0 12.9.2 18.2.3 11.7.2-6.4.2-17 0-23.5-.1-6.4-.3-1.1-.3 11.8m205 0c0 12.9.2 18.2.3 11.7.2-6.4.2-17 0-23.5-.1-6.4-.3-1.1-.3 11.8m-164.2 7.5c0 1.6.2 2.2.5 1.2.2-.9.2-2.3 0-3-.3-.6-.5.1-.5 1.8m0 8c0 1.6.2 2.2.5 1.2.2-.9.2-2.3 0-3-.3-.6-.5.1-.5 1.8"/><path fill="#FFF" fill-opacity=".1" d="M100.4 509c0 11.3.2 15.9.3 10.2.2-5.6.2-14.8 0-20.5-.1-5.6-.3-1-.3 10.3m214.9-15.5c0 2.7.2 3.8.4 2.2.2-1.5.2-3.7 0-5-.2-1.2-.4 0-.4 2.8M217.4 521c0 12.9.2 18.2.3 11.7.2-6.4.2-17 0-23.5-.1-6.4-.3-1.1-.3 11.8m205 0c0 12.9.2 18.2.3 11.7.2-6.4.2-17 0-23.5-.1-6.4-.3-1.1-.3 11.8M307 516.3l.5 5.2.3-4.4c.2-2.4 0-4.7-.5-5.2-.4-.4-.6 1.5-.3 4.4m8 23 .5 5.2.3-4.4c.2-2.4 0-4.7-.5-5.2-.4-.4-.6 1.5-.3 4.4m-214.7.2c0 2.7.2 3.8.4 2.2.2-1.5.2-3.7 0-5-.2-1.2-.4 0-.4 2.8"/><path fill="#FFF" fill-opacity=".3" d="M110.4 509c0 11.3.2 15.9.3 10.2.2-5.6.2-14.8 0-20.5-.1-5.6-.3-1-.3 10.3m15 7.5c0 15.4.2 21.6.3 13.7.2-7.9.2-20.5 0-28-.1-7.5-.3-1.1-.3 14.3m56 0c0 15.4.2 21.6.3 13.7.2-7.9.2-20.5 0-28-.1-7.5-.3-1.1-.3 14.3m149 0c0 15.4.2 21.6.3 13.7.2-7.9.2-20.5 0-28-.1-7.5-.3-1.1-.3 14.3m56 0c0 15.4.2 21.6.3 13.7.2-7.9.2-20.5 0-28-.1-7.5-.3-1.1-.3 14.3m-113.1-12c0 3.8.2 5.3.4 3.2.2-2 .2-5.2 0-7-.2-1.7-.4-.1-.4 3.8m0 23c0 3.8.2 5.3.4 3.2.2-2 .2-5.2 0-7-.2-1.7-.4-.1-.4 3.8m-163 12c0 2.7.2 3.8.4 2.2.2-1.5.2-3.7 0-5-.2-1.2-.4 0-.4 2.8"/><path fill="#FFF" fill-opacity=".6" d="M101.4 509c0 11.3.2 15.9.3 10.2.2-5.6.2-14.8 0-20.5-.1-5.6-.3-1-.3 10.3m212.9-15.5c0 2.7.2 3.8.4 2.2.2-1.5.2-3.7 0-5-.2-1.2-.4 0-.4 2.8M218.4 521c0 12.9.2 18.2.3 11.7.2-6.4.2-17 0-23.5-.1-6.4-.3-1.1-.3 11.8m205 0c0 12.9.2 18.2.3 11.7.2-6.4.2-17 0-23.5-.1-6.4-.3-1.1-.3 11.8m-117.1-4.5c0 2.7.2 3.8.4 2.2.2-1.5.2-3.7 0-5-.2-1.2-.4 0-.4 2.8m-205 23c0 2.7.2 3.8.4 2.2.2-1.5.2-3.7 0-5-.2-1.2-.4 0-.4 2.8m213 0c0 2.7.2 3.8.4 2.2.2-1.5.2-3.7 0-5-.2-1.2-.4 0-.4 2.8"/><path fill="#FFF" d="M102 509v20h7v-40h-7zm25 7.5V544h7v-21.5c0-12 .4-21.5.9-21.5s8.9 9.6 18.7 21.4l17.9 21.5h4.3l4.2.1v-55h-7v21c0 16.2-.3 21-1.2 20.9-.7 0-9.2-9.4-18.8-21L135.6 489H127zm69-23v4.5h23v46h8v-23c0-22.3.1-23 2-23 1.7 0 2-.7 2-4.5V489h-35zm43 0v4.5h11v-9h-11zm26 14c0 17.8.1 18.5 2 18.5 1.5 0 2 .7 2 2.5s-.5 2.5-2 2.5c-1.1 0-2 .7-2 1.5s.9 1.5 2 1.5c1.5 0 2 .7 2 2.5s-.5 2.5-2 2.5-2 .7-2 2.5v2.5h49v-9h-42v-14h34v-9h-34v-14h42v-9h-49zm67 9V544h7v-21.5c0-12 .4-21.5.9-21.5s8.9 9.6 18.7 21.4l17.9 21.5h4.3l4.2.1v-55h-7v21c0 16.2-.3 21-1.2 20.9-.7 0-9.2-9.4-18.8-21L340.6 489H332zm69-23v4.5h23v46h8v-46h3c2.9 0 3-.2 3-4.5V489h-37zm45 0v4.5h9v-9h-9zm-344 46c0 4.5 0 4.5 3.5 4.5s3.5 0 3.5-4.5 0-4.5-3.5-4.5-3.5 0-3.5 4.5"/><path fill="#FFF" fill-opacity=".8" d="M109.4 509c0 11.3.2 15.9.3 10.2.2-5.6.2-14.8 0-20.5-.1-5.6-.3-1-.3 10.3m17 7.5c0 15.4.2 21.6.3 13.7.2-7.9.2-20.5 0-28-.1-7.5-.3-1.1-.3 14.3m54 0c0 15.4.2 21.6.3 13.7.2-7.9.2-20.5 0-28-.1-7.5-.3-1.1-.3 14.3m151 0c0 15.4.2 21.6.3 13.7.2-7.9.2-20.5 0-28-.1-7.5-.3-1.1-.3 14.3m54 0c0 15.4.2 21.6.3 13.7.2-7.9.2-20.5 0-28-.1-7.5-.3-1.1-.3 14.3M272.3 505c0 4.1.2 5.8.4 3.7.2-2 .2-5.4 0-7.5-.2-2-.4-.3-.4 3.8M145 500.4c0 .2.8 1 1.8 1.7 1.5 1.3 1.6 1.2.3-.4s-2.1-2.1-2.1-1.3m205 0c0 .2.8 1 1.8 1.7 1.5 1.3 1.6 1.2.3-.4s-2.1-2.1-2.1-1.3m-200 6c0 .2.8 1 1.8 1.7 1.5 1.3 1.6 1.2.3-.4s-2.1-2.1-2.1-1.3m205 0c0 .2.8 1 1.8 1.7 1.5 1.3 1.6 1.2.3-.4s-2.1-2.1-2.1-1.3m-209 8c0 .2.8 1 1.8 1.7 1.5 1.3 1.6 1.2.3-.4s-2.1-2.1-2.1-1.3m205 0c0 .2.8 1 1.8 1.7 1.5 1.3 1.6 1.2.3-.4s-2.1-2.1-2.1-1.3M272.3 528c0 4.1.2 5.8.4 3.7.2-2 .2-5.4 0-7.5-.2-2-.4-.3-.4 3.8M166 525.4c0 .2.8 1 1.8 1.7 1.5 1.3 1.6 1.2.3-.4s-2.1-2.1-2.1-1.3m205 0c0 .2.8 1 1.8 1.7 1.5 1.3 1.6 1.2.3-.4s-2.1-2.1-2.1-1.3m-209 8c0 .2.8 1 1.8 1.7 1.5 1.3 1.6 1.2.3-.4s-2.1-2.1-2.1-1.3m205 0c0 .2.8 1 1.8 1.7 1.5 1.3 1.6 1.2.3-.4s-2.1-2.1-2.1-1.3m-257.7 6.1c0 2.7.2 3.8.4 2.2.2-1.5.2-3.7 0-5-.2-1.2-.4 0-.4 2.8m57.7-.1c0 .2.8 1 1.8 1.7 1.5 1.3 1.6 1.2.3-.4s-2.1-2.1-2.1-1.3m205 0c0 .2.8 1 1.8 1.7 1.5 1.3 1.6 1.2.3-.4s-2.1-2.1-2.1-1.3"/><path fill="#FFF" fill-opacity=".7" d="M172.4 509.5c0 11.6.2 16.1.3 10.2.2-5.9.2-15.4 0-21-.1-5.6-.3-.8-.3 10.8m22.9-16c0 2.7.2 3.8.4 2.2.2-1.5.2-3.7 0-5-.2-1.2-.4 0-.4 2.8m69.1 14c0 10.4.2 14.6.3 9.2.2-5.4.2-13.9 0-19-.1-5.1-.3-.7-.3 9.8m113 2c0 11.6.2 16.1.3 10.2.2-5.9.2-15.4 0-21-.1-5.6-.3-.8-.3 10.8m22.9-16c0 2.7.2 3.8.4 2.2.2-1.5.2-3.7 0-5-.2-1.2-.4 0-.4 2.8M134.4 523c0 11.8.2 16.7.3 10.8.2-6 .2-15.6 0-21.5-.1-6-.3-1.1-.3 10.7m205 0c0 11.8.2 16.7.3 10.8.2-6 .2-15.6 0-21.5-.1-6-.3-1.1-.3 10.7m-75.3 9.6c0 1.1.3 1.4.6.6.3-.7.2-1.6-.1-1.9-.3-.4-.6.2-.5 1.3m.1 8.9c0 1.7.2 2.2.5 1.2.2-.9.2-2.3 0-3-.3-.6-.5.1-.5 1.8"/></svg>